<svg viewBox="0 0 500 500" xmlns="http://www.w3.org/2000/svg"><defs><clipPath id="a"><path d="M0 0h500v500H0Z"/></clipPath></defs><g clip-path="url(#a)"><path fill="#FF3838" d="M121.99 0h255.97c67.37 0 121.99 54.61 121.99 121.99v255.97c0 67.37-54.62 121.99-121.99 121.99H121.98C54.6 499.95-.01 445.33-.01 377.96V121.98C-.01 54.6 54.6-.01 121.98-.01Z"/><g fill="#FFF"><path d="M114.975 300.64c6.18 3.43 14.16 1.1 17.6-5.23 .68-1.52 1.23-3.03 1.37-4.68l.13-1.24c.96-5.23-1.52-10.59-6.05-13.2 -2.62-1.375-5.09-3.17-7.15-5.23 -6.33-6.74-9.49-15.54-8.8-24.62h-.02c0-19.67 15.81-35.62 35.47-35.62 2.33 0 4.81.12 7.28.67 3.85.68 7.97-.28 11.13-2.62 3.3-2.62 5.22-6.6 5.36-10.73 .96-78.93 114.029-101.48 148.73-28.19 2.47 4.95 7.7 8.11 13.33 7.7 15.4-.69 30.25 5.77 40.28 17.46 9.21 10.45 13.87 24.33 12.77 38.5 -.55 14.02-7.15 27.08-18.29 35.75 -3.99 3.02-5.78 8.09-4.68 12.91l.13.55c1.1 7.01 7.83 11.82 14.98 10.72 2.06-.42 4.125-1.24 5.77-2.62 18.7-14.17 29.56-36.44 29.42-59.82 1.1-41.8-30.25-77.28-71.75-81.13 -1.1-.14-2.07-.84-2.62-1.67 -29.98-50.19-94.98-66.42-145.03-36.58 -25.03 14.85-42.762 39.46-49.09 67.92 -.42 1.375-1.65 2.47-3.17 2.61 -20.77 1.51-39.47 13.04-50.19 30.92 -6.05 10.03-9.08 21.72-8.53 33.55 -.42 15.81 5.77 31.07 16.91 42.48 3.85 3.71 8.25 7.01 12.92 9.625l1.65 1.7Z"/><path d="M249.73 285.214c-5.47 0-10.72 2.17-14.59 6.04 -3.87 3.86-6.05 9.11-6.05 14.58 0 5.47 2.17 10.71 6.04 14.58 3.86 3.86 9.11 6.04 14.58 6.04 5.47 0 10.71-2.18 14.58-6.05 3.86-3.87 6.04-9.12 6.04-14.59 0-5.47-2.18-10.72-6.05-14.59 -3.87-3.87-9.12-6.05-14.59-6.05Z"/><path d="M332.22 353.812c5.5-9.35 4.12-21.32-3.3-29.15l-13.62-14.63c-2.34-2.48-2.34-6.19 0-8.67l13.47-14.72c9.21-10.04 8.52-25.44-1.375-34.65 -6.05-5.64-14.3-7.84-22.14-6.05l-19.39 4.4h-.14c-3.3.68-6.47-1.24-7.43-4.4l-5.92-19.25c-3.99-12.93-17.6-20.35-30.53-16.37 -7.98 2.33-14.03 8.387-16.37 16.22l-5.92 19.11c-.97 3.02-4.27 4.95-7.43 4.26l-19.53-4.54c-13.34-3.03-26.4 5.22-29.43 18.42 -1.93 7.83.41 16.08 5.91 22l13.47 14.57c2.2 2.33 2.2 6.05-.02 8.52l-13.62 14.63c-9.35 9.9-8.67 25.3 1.23 34.51 5.91 5.5 14.16 7.7 22 5.91l19.38-4.54c3.16-.83 6.32 1.1 7.28 4.26l5.77 19.11c3.85 12.78 17.46 20.21 30.38 16.22 7.83-2.48 13.88-8.53 16.22-16.37l5.77-19.25c.82-3.17 4.125-5.09 7.28-4.4l19.38 4.4c10.45 2.47 21.31-2.2 26.62-11.69l1.85 2.06Zm-82.5-6.74c-22.83 0-41.25-18.57-41.25-41.25 0-22.83 18.42-41.25 41.25-41.25 22.68 0 41.25 18.42 41.25 41.25 0 22.68-18.57 41.25-41.25 41.25 -.14 0-.14-.14-.14-.14l.13.13Z"/></g></g></svg>