<svg viewBox="0 0 500 500" xmlns="http://www.w3.org/2000/svg"><defs><clipPath id="a"><path d="M0 0h500v500H0Z"/></clipPath></defs><g clip-path="url(#a)"><g fill="#FFF"><path d="M45.41 326.72c9.37 5.2 21.45 1.66 26.66-7.92 1.04-2.3 1.875-4.59 2.08-7.09l.2-1.88c1.45-7.92-2.3-16.05-9.17-20 -3.96-2.09-7.71-4.8-10.84-7.92 -9.59-10.21-14.375-23.55-13.34-37.3h-.03c0-29.8 23.95-53.96 53.74-53.96 3.54 0 7.29.18 11.04 1.02 5.83 1.04 12.08-.42 16.87-3.96 5-3.96 7.91-10 8.12-16.25 1.45-119.59 172.77-153.75 225.35-42.708 3.75 7.5 11.66 12.29 20.2 11.66 23.33-1.05 45.83 8.75 61.04 26.45 13.95 15.83 21.02 36.875 19.35 58.333 -.84 21.25-10.84 41.04-27.71 54.16 -6.05 4.58-8.75 12.27-7.09 19.56l.2.83c1.66 10.62 11.875 17.91 22.7 16.25 3.125-.63 6.25-1.875 8.75-3.96 28.33-21.46 44.79-55.21 44.58-90.63 1.66-63.333-45.84-117.083-108.71-122.92 -1.67-.21-3.125-1.28-3.96-2.53C340.02 19.9 241.54-4.68 165.71 40.53c-37.916 22.5-64.8 59.79-74.38 102.91 -.625 2.08-2.5 3.75-4.8 3.95 -31.46 2.29-59.8 19.77-76.05 46.85 -9.17 15.2-13.75 32.91-12.92 50.834 -.625 23.958 8.75 47.08 25.62 64.37 5.83 5.625 12.5 10.625 19.58 14.58l2.5 2.58Z"/><path d="M249.604 303.35c-8.29 0-16.24 3.29-22.1 9.15 -5.87 5.86-9.16 13.8-9.16 22.09 0 8.28 3.29 16.23 9.15 22.09 5.86 5.86 13.8 9.15 22.09 9.15 8.28 0 16.23-3.3 22.09-9.16 5.86-5.86 9.15-13.81 9.15-22.1 0-8.29-3.3-16.24-9.16-22.1 -5.86-5.86-13.81-9.16-22.1-9.16Z"/><path d="M374.58 407.292c8.33-14.17 6.25-32.3-5-44.17l-20.625-22.17c-3.55-3.75-3.55-9.375 0-13.125l20.41-22.3c13.95-15.21 12.91-38.55-2.09-52.5 -9.17-8.55-21.67-11.875-33.55-9.17l-29.375 6.66h-.21c-5 1.04-9.8-1.875-11.25-6.67l-8.96-29.167c-6.05-19.583-26.67-30.833-46.25-24.8 -12.09 3.54-21.25 12.7-24.8 24.583l-8.96 28.95c-1.46 4.58-6.46 7.5-11.25 6.45l-29.59-6.875c-20.21-4.59-40 7.91-44.59 27.91 -2.92 11.875.625 24.375 8.95 33.334l20.41 22.08c3.33 3.54 3.33 9.16-.03 12.91l-20.625 22.16c-14.17 15-13.125 38.334 1.875 52.29 8.95 8.33 21.45 11.66 33.33 8.95l29.37-6.875c4.79-1.25 9.58 1.66 11.04 6.45l8.75 28.95c5.83 19.375 26.45 30.625 46.04 24.58 11.875-3.75 21.04-12.92 24.58-24.8l8.75-29.17c1.25-4.8 6.25-7.71 11.04-6.67l29.375 6.66c15.83 3.75 32.29-3.34 40.33-17.71l2.81 3.12Zm-125-10.21c-34.583 0-62.5-28.125-62.5-62.5 0-34.59 27.91-62.5 62.5-62.5 34.37 0 62.5 27.91 62.5 62.5 0 34.375-28.125 62.5-62.5 62.5 -.21 0-.21-.21-.21-.21l.2.2Z"/></g></g></svg>